<?xml version="1.0" encoding="utf-8"?>
<!-- Generator: Adobe Illustrator 24.2.1, SVG Export Plug-In . SVG Version: 6.00 Build 0)  -->
<svg version="1.1" id="Calque_1" xmlns="http://www.w3.org/2000/svg" xmlns:xlink="http://www.w3.org/1999/xlink" x="0px" y="0px"
	 viewBox="0 0 1543 1031" style="enable-background:new 0 0 1543 1031;" xml:space="preserve">
<style type="text/css">
	.st0{fill:none;stroke:#000000;stroke-miterlimit:10;}
	.st1{fill:#FFFFFF;}
	.st2{font-family:'ArialMT';}
	.st3{font-size:13px;}
	.st4{font-family:'Arial-BoldMT';}
	.st5{opacity:0.2;fill:#C0C0C0;enable-background:new    ;}
	.st6{fill:none;stroke:#000000;stroke-miterlimit:10;stroke-dasharray:3;}
	.st7{fill:none;stroke:#000000;stroke-miterlimit:10;stroke-dasharray:10,3;}
</style>
<g>
	<g transform="translate(5,5) scale(1,1)">
		<path class="st0" d="M5,5h1523v1011H5V5"/>
	</g>
	<g transform="translate(5,5) scale(1,1)">
		<path class="st1" d="M5,5v22h235.7l11-11V5H5"/>
	</g>
	<g transform="translate(5,5) scale(1,1)">
		<path class="st0" d="M5,5v22h235.7l11-11V5H5L5,5"/>
	</g>
	<g transform="translate(5,5) scale(1,1)">
		<g>
			<path class="st0" d="M0,0"/>
			<text transform="matrix(1 0 0 1 75.979 22.5)" class="st2 st3">Room fighting management</text>
		</g>
	</g>
	<g transform="translate(5,5) scale(1,1)">
		<g>
			<path d="M0,0"/>
			<text transform="matrix(1 0 0 1 10 22.5)" class="st4 st3">interaction</text>
		</g>
	</g>
	<g transform="translate(5,5) scale(1,1)">
		<rect x="58" y="47" class="st5" width="136" height="39"/>
	</g>
	<g transform="translate(5,5) scale(1,1)">
		<rect x="51" y="40" class="st1" width="136" height="39"/>
	</g>
	<g transform="translate(5,5) scale(1,1)">
		<path class="st0" d="M51,40h136v39H51V40z"/>
	</g>
	<g transform="translate(5,5) scale(1,1)">
		<g>
			<path class="st0" d="M0,0"/>
			<text transform="matrix(1 0 0 1 64.791 59.5)" class="st4 st3">Lifeline1: Dungeon</text>
		</g>
	</g>
	<g transform="translate(5,5) scale(1,1)">
		<path class="st6" d="M120.5,80v894"/>
	</g>
	<g transform="translate(5,5) scale(1,1)">
		<rect x="308" y="47" class="st5" width="116.5" height="39"/>
	</g>
	<g transform="translate(5,5) scale(1,1)">
		<rect x="301" y="40" class="st1" width="116.5" height="39"/>
	</g>
	<g transform="translate(5,5) scale(1,1)">
		<path class="st0" d="M301,40h116.5v39H301V40z"/>
	</g>
	<g transform="translate(5,5) scale(1,1)">
		<g>
			<path class="st0" d="M0,0"/>
			<text transform="matrix(1 0 0 1 314.0896 59.5)" class="st4 st3">Lifeline2: Room</text>
		</g>
	</g>
	<g transform="translate(5,5) scale(1,1)">
		<path class="st6" d="M360.5,80v876"/>
	</g>
	<g transform="translate(5,5) scale(1,1)">
		<rect x="512" y="47" class="st5" width="130.2" height="39"/>
	</g>
	<g transform="translate(5,5) scale(1,1)">
		<rect x="505" y="40" class="st1" width="130.2" height="39"/>
	</g>
	<g transform="translate(5,5) scale(1,1)">
		<path class="st0" d="M505,40h130.2v39H505V40z"/>
	</g>
	<g transform="translate(5,5) scale(1,1)">
		<g>
			<path class="st0" d="M0,0"/>
			<text transform="matrix(1 0 0 1 518.8132 59.5)" class="st4 st3">Lifeline3: Monster</text>
		</g>
	</g>
	<g transform="translate(5,5) scale(1,1)">
		<path class="st6" d="M571.5,80v762"/>
	</g>
	<g transform="translate(5,5) scale(1,1)">
		<rect x="758" y="47" class="st5" width="109.3" height="39"/>
	</g>
	<g transform="translate(5,5) scale(1,1)">
		<rect x="751" y="40" class="st1" width="109.3" height="39"/>
	</g>
	<g transform="translate(5,5) scale(1,1)">
		<path class="st0" d="M751,40h109.3v39H751V40z"/>
	</g>
	<g transform="translate(5,5) scale(1,1)">
		<g>
			<path class="st0" d="M0,0"/>
			<text transform="matrix(1 0 0 1 763.7341 59.5)" class="st4 st3">Lifeline4: Hero</text>
		</g>
	</g>
	<g transform="translate(5,5) scale(1,1)">
		<path class="st6" d="M806.5,80v928"/>
	</g>
	<g transform="translate(5,5) scale(1,1)">
		<rect x="930" y="47" class="st5" width="130" height="39"/>
	</g>
	<g transform="translate(5,5) scale(1,1)">
		<rect x="923" y="40" class="st1" width="130" height="39"/>
	</g>
	<g transform="translate(5,5) scale(1,1)">
		<path class="st0" d="M923,40h130v39H923V40z"/>
	</g>
	<g transform="translate(5,5) scale(1,1)">
		<g>
			<path class="st0" d="M0,0"/>
			<text transform="matrix(1 0 0 1 936.0801 59.5)" class="st4 st3">Lifeline5: Weapon</text>
		</g>
	</g>
	<g transform="translate(5,5) scale(1,1)">
		<path class="st6" d="M988.5,80v461"/>
	</g>
	<g transform="translate(5,5) scale(1,1)">
		<rect x="1243" y="47" class="st5" width="166.8" height="39"/>
	</g>
	<g transform="translate(5,5) scale(1,1)">
		<rect x="1236" y="40" class="st1" width="166.8" height="39"/>
	</g>
	<g transform="translate(5,5) scale(1,1)">
		<path class="st0" d="M1236,40h166.8v39H1236V40z"/>
	</g>
	<g transform="translate(5,5) scale(1,1)">
		<g>
			<path class="st0" d="M0,0"/>
			<text transform="matrix(1 0 0 1 1250.1655 59.5)" class="st4 st3">Lifeline6: HeroWeapons</text>
		</g>
	</g>
	<g transform="translate(5,5) scale(1,1)">
		<path class="st6" d="M1320.5,80v762"/>
	</g>
	<g transform="translate(5,5) scale(1,1)">
		<rect x="751" y="47" class="st5" width="71.7" height="39"/>
	</g>
	<g transform="translate(5,5) scale(1,1)">
		<rect x="744" y="40" class="st1" width="71.7" height="39"/>
	</g>
	<g transform="translate(5,5) scale(1,1)">
		<path class="st0" d="M744,40h71.7v39H744V40z"/>
	</g>
	<g transform="translate(5,5) scale(1,1)">
		<g>
			<path class="st0" d="M0,0"/>
			<text transform="matrix(1 0 0 1 755.655 59.5)" class="st4 st3">Lifeline7</text>
		</g>
	</g>
	<g transform="translate(5,5) scale(1,1)">
		<path class="st6" d="M780.5,80v159"/>
	</g>
	<g transform="translate(5,5) scale(1,1)">
		<path class="st0" d="M120,104h30v20h-24"/>
	</g>
	<g transform="translate(5,5) scale(1,1)">
		<path d="M136.2,119.8L126,124l10.2,4.2"/>
	</g>
	<g transform="translate(5,5) scale(1,1)">
		<path class="st0" d="M136.2,119.8L126,124l10.2,4.2V119.8"/>
	</g>
	<g transform="translate(5,5) scale(1,1)">
		<g>
			<path class="st0" d="M0,0"/>
			<text transform="matrix(1 0 0 1 95.5 100.5)" class="st2 st3">1 : greetHeros(p_Hero: Hero)</text>
		</g>
	</g>
	<g transform="translate(5,5) scale(1,1)">
		<rect x="113" y="124" class="st1" width="13" height="836"/>
	</g>
	<g transform="translate(5,5) scale(1,1)">
		<path class="st0" d="M113,124h13v836h-13V124z"/>
	</g>
	<g transform="translate(5,5) scale(1,1)">
		<path class="st0" d="M126,208h227"/>
	</g>
	<g transform="translate(5,5) scale(1,1)">
		<path d="M342.8,212.2L353,208l-10.2-4.2"/>
	</g>
	<g transform="translate(5,5) scale(1,1)">
		<path class="st0" d="M342.8,212.2L353,208l-10.2-4.2V212.2"/>
	</g>
	<g transform="translate(5,5) scale(1,1)">
		<g>
			<path class="st0" d="M0,0"/>
			<text transform="matrix(1 0 0 1 154.5 204.5)" class="st2 st3">2 : enterRoom(p_Hero: Hero)</text>
		</g>
	</g>
	<g transform="translate(5,5) scale(1,1)">
		<rect x="353" y="208" class="st1" width="13" height="712"/>
	</g>
	<g transform="translate(5,5) scale(1,1)">
		<path class="st0" d="M353,208h13v712h-13V208z"/>
	</g>
	<g transform="translate(5,5) scale(1,1)">
		<path class="st0" d="M366,224h433"/>
	</g>
	<g transform="translate(5,5) scale(1,1)">
		<path d="M788.8,228.2L799,224l-10.2-4.2"/>
	</g>
	<g transform="translate(5,5) scale(1,1)">
		<path class="st0" d="M788.8,228.2L799,224l-10.2-4.2V228.2"/>
	</g>
	<g transform="translate(5,5) scale(1,1)">
		<g>
			<path class="st0" d="M0,0"/>
			<text transform="matrix(1 0 0 1 430.5 219.5)" class="st2 st3">3 : discoverEnnemy(p_Monster: Monster)</text>
		</g>
	</g>
	<g transform="translate(5,5) scale(1,1)">
		<rect x="799" y="224" class="st1" width="13" height="112"/>
	</g>
	<g transform="translate(5,5) scale(1,1)">
		<path class="st0" d="M799,224h13v112h-13V224z"/>
	</g>
	<g transform="translate(5,5) scale(1,1)">
		<path class="st0" d="M812,256h30v20h-23"/>
	</g>
	<g transform="translate(5,5) scale(1,1)">
		<path d="M829.2,271.8L819,276l10.2,4.2"/>
	</g>
	<g transform="translate(5,5) scale(1,1)">
		<path class="st0" d="M829.2,271.8L819,276l10.2,4.2V271.8"/>
	</g>
	<g transform="translate(5,5) scale(1,1)">
		<g>
			<path class="st0" d="M0,0"/>
			<text transform="matrix(1 0 0 1 814.5 244.5)" class="st2 st3">4 : selectWeaponFromArsenal(p_sWeaponClassName: String)</text>
		</g>
	</g>
	<g transform="translate(5,5) scale(1,1)">
		<rect x="806" y="276" class="st1" width="13" height="52"/>
	</g>
	<g transform="translate(5,5) scale(1,1)">
		<path class="st0" d="M806,276h13v52h-13V276z"/>
	</g>
	<g transform="translate(5,5) scale(1,1)">
		<path class="st0" d="M806,288H577"/>
	</g>
	<g transform="translate(5,5) scale(1,1)">
		<path d="M587.2,283.8L577,288l10.2,4.2"/>
	</g>
	<g transform="translate(5,5) scale(1,1)">
		<path class="st0" d="M587.2,283.8L577,288l10.2,4.2V283.8"/>
	</g>
	<g transform="translate(5,5) scale(1,1)">
		<g>
			<path class="st0" d="M0,0"/>
			<text transform="matrix(1 0 0 1 598.5 283.5)" class="st2 st3">5 : getEffectiveWeaponType()</text>
		</g>
	</g>
	<g transform="translate(5,5) scale(1,1)">
		<rect x="564" y="288" class="st1" width="13" height="28"/>
	</g>
	<g transform="translate(5,5) scale(1,1)">
		<path class="st0" d="M564,288h13v28h-13V288z"/>
	</g>
	<g transform="translate(5,5) scale(1,1)">
		<path class="st6" d="M577,304h229"/>
	</g>
	<g transform="translate(5,5) scale(1,1)">
		<path class="st0" d="M795.8,308.2L806,304l-10.2-4.2"/>
	</g>
	<g transform="translate(5,5) scale(1,1)">
		<g>
			<path class="st0" d="M0,0"/>
			<text transform="matrix(1 0 0 1 639.5 315.5)" class="st2 st3">6 : WeaponName</text>
		</g>
	</g>
	<g transform="translate(5,5) scale(1,1)">
		<path class="st0" d="M366,448h198"/>
	</g>
	<g transform="translate(5,5) scale(1,1)">
		<path d="M553.8,452.2L564,448l-10.2-4.2"/>
	</g>
	<g transform="translate(5,5) scale(1,1)">
		<path class="st0" d="M553.8,452.2L564,448l-10.2-4.2V452.2"/>
	</g>
	<g transform="translate(5,5) scale(1,1)">
		<g>
			<path class="st0" d="M0,0"/>
			<text transform="matrix(1 0 0 1 348.5 444.5)" class="st2 st3">7 : attack(p_TargetCharacter: Character)</text>
		</g>
	</g>
	<g transform="translate(5,5) scale(1,1)">
		<rect x="564" y="448" class="st1" width="13" height="49"/>
	</g>
	<g transform="translate(5,5) scale(1,1)">
		<path class="st0" d="M564,448h13v49h-13V448z"/>
	</g>
	<g transform="translate(5,5) scale(1,1)">
		<path class="st0" d="M577,472h404"/>
	</g>
	<g transform="translate(5,5) scale(1,1)">
		<path d="M970.8,476.2L981,472l-10.2-4.2"/>
	</g>
	<g transform="translate(5,5) scale(1,1)">
		<path class="st0" d="M970.8,476.2L981,472l-10.2-4.2V476.2"/>
	</g>
	<g transform="translate(5,5) scale(1,1)">
		<g>
			<path class="st0" d="M0,0"/>
			<text transform="matrix(1 0 0 1 640.5 468.5)" class="st2 st3">8 : inflictDamage(p_TargetCharacter: Character)</text>
		</g>
	</g>
	<g transform="translate(5,5) scale(1,1)">
		<rect x="981" y="472" class="st1" width="13" height="28"/>
	</g>
	<g transform="translate(5,5) scale(1,1)">
		<path class="st0" d="M981,472h13v28h-13V472z"/>
	</g>
	<g transform="translate(5,5) scale(1,1)">
		<path class="st0" d="M981,496H812"/>
	</g>
	<g transform="translate(5,5) scale(1,1)">
		<path d="M822.2,491.8L812,496l10.2,4.2"/>
	</g>
	<g transform="translate(5,5) scale(1,1)">
		<path class="st0" d="M822.2,491.8L812,496l10.2,4.2V491.8"/>
	</g>
	<g transform="translate(5,5) scale(1,1)">
		<g>
			<path class="st0" d="M0,0"/>
			<text transform="matrix(1 0 0 1 806.5 527.5)" class="st2 st3">9 : receiveDamages(p_iDamages: int)</text>
		</g>
	</g>
	<g transform="translate(5,5) scale(1,1)">
		<rect x="799" y="496" class="st1" width="13" height="28"/>
	</g>
	<g transform="translate(5,5) scale(1,1)">
		<path class="st0" d="M799,496h13v28h-13V496z"/>
	</g>
	<g transform="translate(5,5) scale(1,1)">
		<path class="st0" d="M366,584h433"/>
	</g>
	<g transform="translate(5,5) scale(1,1)">
		<path d="M788.8,588.2L799,584l-10.2-4.2"/>
	</g>
	<g transform="translate(5,5) scale(1,1)">
		<path class="st0" d="M788.8,588.2L799,584l-10.2-4.2V588.2"/>
	</g>
	<g transform="translate(5,5) scale(1,1)">
		<g>
			<path class="st0" d="M0,0"/>
			<text transform="matrix(1 0 0 1 547.0981 580.5)" class="st2 st3">10 : isalive()</text>
		</g>
	</g>
	<g transform="translate(5,5) scale(1,1)">
		<rect x="799" y="584" class="st1" width="13" height="28"/>
	</g>
	<g transform="translate(5,5) scale(1,1)">
		<path class="st0" d="M799,584h13v28h-13V584z"/>
	</g>
	<g transform="translate(5,5) scale(1,1)">
		<path class="st0" d="M366,632h433"/>
	</g>
	<g transform="translate(5,5) scale(1,1)">
		<path d="M788.8,636.2L799,632l-10.2-4.2"/>
	</g>
	<g transform="translate(5,5) scale(1,1)">
		<path class="st0" d="M788.8,636.2L799,632l-10.2-4.2V636.2"/>
	</g>
	<g transform="translate(5,5) scale(1,1)">
		<g>
			<path class="st0" d="M0,0"/>
			<text transform="matrix(1 0 0 1 462.5 628.5)" class="st2 st3">11 : attack(p_TargetCharacter: Character)</text>
		</g>
	</g>
	<g transform="translate(5,5) scale(1,1)">
		<rect x="799" y="632" class="st1" width="13" height="160"/>
	</g>
	<g transform="translate(5,5) scale(1,1)">
		<path class="st0" d="M799,632h13v160h-13V632z"/>
	</g>
	<g transform="translate(5,5) scale(1,1)">
		<path class="st0" d="M799,648H577"/>
	</g>
	<g transform="translate(5,5) scale(1,1)">
		<path d="M587.2,643.8L577,648l10.2,4.2"/>
	</g>
	<g transform="translate(5,5) scale(1,1)">
		<path class="st0" d="M587.2,643.8L577,648l10.2,4.2V643.8"/>
	</g>
	<g transform="translate(5,5) scale(1,1)">
		<g>
			<path class="st0" d="M0,0"/>
			<text transform="matrix(1 0 0 1 559.5 664.5)" class="st2 st3">12 : isWeaponEfficient(p_Weapon: Weapon)</text>
		</g>
	</g>
	<g transform="translate(5,5) scale(1,1)">
		<rect x="564" y="648" class="st1" width="13" height="28"/>
	</g>
	<g transform="translate(5,5) scale(1,1)">
		<path class="st0" d="M564,648h13v28h-13V648z"/>
	</g>
	<g transform="translate(5,5) scale(1,1)">
		<path class="st0" d="M812,688h501"/>
	</g>
	<g transform="translate(5,5) scale(1,1)">
		<path d="M1302.8,692.2l10.2-4.2l-10.2-4.2"/>
	</g>
	<g transform="translate(5,5) scale(1,1)">
		<path class="st0" d="M1302.8,692.2l10.2-4.2l-10.2-4.2V692.2"/>
	</g>
	<g transform="translate(5,5) scale(1,1)">
		<g>
			<path class="st0" d="M0,0"/>
			<text transform="matrix(1 0 0 1 962.5 684.5)" class="st2 st3">13 : setAttackBonus(p_iBonus: int)</text>
		</g>
	</g>
	<g transform="translate(5,5) scale(1,1)">
		<rect x="1313" y="688" class="st1" width="13" height="28"/>
	</g>
	<g transform="translate(5,5) scale(1,1)">
		<path class="st0" d="M1313,688h13v28h-13V688z"/>
	</g>
	<g transform="translate(5,5) scale(1,1)">
		<path class="st0" d="M812,768h501"/>
	</g>
	<g transform="translate(5,5) scale(1,1)">
		<path d="M1302.8,772.2l10.2-4.2l-10.2-4.2"/>
	</g>
	<g transform="translate(5,5) scale(1,1)">
		<path class="st0" d="M1302.8,772.2l10.2-4.2l-10.2-4.2V772.2"/>
	</g>
	<g transform="translate(5,5) scale(1,1)">
		<g>
			<path class="st0" d="M0,0"/>
			<text transform="matrix(1 0 0 1 919.5 764.5)" class="st2 st3">14 : inflictDamage(p_TargetCharacter: Character)</text>
		</g>
	</g>
	<g transform="translate(5,5) scale(1,1)">
		<rect x="1313" y="768" class="st1" width="13" height="28"/>
	</g>
	<g transform="translate(5,5) scale(1,1)">
		<path class="st0" d="M1313,768h13v28h-13V768z"/>
	</g>
	<g transform="translate(5,5) scale(1,1)">
		<path class="st0" d="M1320,800H577"/>
	</g>
	<g transform="translate(5,5) scale(1,1)">
		<path d="M587.2,795.8L577,800l10.2,4.2"/>
	</g>
	<g transform="translate(5,5) scale(1,1)">
		<path class="st0" d="M587.2,795.8L577,800l10.2,4.2V795.8"/>
	</g>
	<g transform="translate(5,5) scale(1,1)">
		<g>
			<path class="st0" d="M0,0"/>
			<text transform="matrix(1 0 0 1 834.5 816.5)" class="st2 st3">15 : receiveDamages(p_iDamages: int)</text>
		</g>
	</g>
	<g transform="translate(5,5) scale(1,1)">
		<rect x="564" y="800" class="st1" width="13" height="28"/>
	</g>
	<g transform="translate(5,5) scale(1,1)">
		<path class="st0" d="M564,800h13v28h-13V800z"/>
	</g>
	<g transform="translate(5,5) scale(1,1)">
		<path class="st0" d="M64,144h1447v695H64V144"/>
	</g>
	<g transform="translate(5,5) scale(1,1)">
		<path class="st1" d="M64,144v22h120.8l11-11v-11H64"/>
	</g>
	<g transform="translate(5,5) scale(1,1)">
		<path class="st0" d="M64,144v22h120.8l11-11v-11H64L64,144"/>
	</g>
	<g transform="translate(5,5) scale(1,1)">
		<g>
			<path class="st0" d="M0,0"/>
			<text transform="matrix(1 0 0 1 99.5781 161.5)" class="st2 st3">for each room</text>
		</g>
	</g>
	<g transform="translate(5,5) scale(1,1)">
		<g>
			<path d="M0,0"/>
			<text transform="matrix(1 0 0 1 69 161.5)" class="st4 st3">loop</text>
		</g>
	</g>
	<g transform="translate(5,5) scale(1,1)">
		<path class="st0" d="M288,344h1072v488H288V344"/>
	</g>
	<g transform="translate(5,5) scale(1,1)">
		<path class="st1" d="M288,344v22h129.5l11-11v-11H288"/>
	</g>
	<g transform="translate(5,5) scale(1,1)">
		<path class="st0" d="M288,344v22h129.5l11-11v-11H288L288,344"/>
	</g>
	<g transform="translate(5,5) scale(1,1)">
		<g>
			<path class="st0" d="M0,0"/>
			<text transform="matrix(1 0 0 1 323.5781 361.5)" class="st2 st3">while both alive</text>
		</g>
	</g>
	<g transform="translate(5,5) scale(1,1)">
		<g>
			<path d="M0,0"/>
			<text transform="matrix(1 0 0 1 293 361.5)" class="st4 st3">loop</text>
		</g>
	</g>
	<g transform="translate(5,5) scale(1,1)">
		<path class="st7" d="M288,537h1072"/>
	</g>
	<g transform="translate(5,5) scale(1,1)">
		<g>
			<path class="st7" d="M0,0"/>
			<text transform="matrix(1 0 0 1 307.5 564.5)" class="st2 st3">[if is hero alive is true]</text>
		</g>
	</g>
</g>
</svg>
