<?xml version="1.0" encoding="utf-8"?>
<!-- Generator: Adobe Illustrator 24.2.1, SVG Export Plug-In . SVG Version: 6.00 Build 0)  -->
<svg version="1.1" id="Calque_1" xmlns="http://www.w3.org/2000/svg" xmlns:xlink="http://www.w3.org/1999/xlink" x="0px" y="0px"
	 viewBox="0 0 1359 959" style="enable-background:new 0 0 1359 959;" xml:space="preserve">
<style type="text/css">
	.st0{fill:none;stroke:#000000;stroke-miterlimit:10;}
	.st1{fill:#FFFFFF;}
	.st2{font-family:'ArialMT';}
	.st3{font-size:13px;}
	.st4{font-family:'Arial-BoldMT';}
	.st5{opacity:0.2;fill:#C0C0C0;enable-background:new    ;}
	.st6{fill:none;stroke:#000000;stroke-miterlimit:10;stroke-dasharray:3;}
</style>
<g>
	<g transform="translate(5,5) scale(1,1)">
		<path class="st0" d="M5,5h1339v939H5V5"/>
	</g>
	<g transform="translate(5,5) scale(1,1)">
		<path class="st1" d="M5,5v22h120.8l11-11V5H5"/>
	</g>
	<g transform="translate(5,5) scale(1,1)">
		<path class="st0" d="M5,5v22h120.8l11-11V5H5L5,5"/>
	</g>
	<g transform="translate(5,5) scale(1,1)">
		<g>
			<path class="st0" d="M0,0"/>
			<text transform="matrix(1 0 0 1 75.979 22.5)" class="st2 st3">Search</text>
		</g>
	</g>
	<g transform="translate(5,5) scale(1,1)">
		<g>
			<path d="M0,0"/>
			<text transform="matrix(1 0 0 1 10 22.5)" class="st4 st3">interaction</text>
		</g>
	</g>
	<g transform="translate(5,5) scale(1,1)">
		<rect x="88" y="47" class="st5" width="116.5" height="39"/>
	</g>
	<g transform="translate(5,5) scale(1,1)">
		<rect x="81" y="40" class="st1" width="116.5" height="39"/>
	</g>
	<g transform="translate(5,5) scale(1,1)">
		<path class="st0" d="M81,40h116.5v39H81V40z"/>
	</g>
	<g transform="translate(5,5) scale(1,1)">
		<g>
			<path class="st0" d="M0,0"/>
			<text transform="matrix(1 0 0 1 94.0896 59.5)" class="st4 st3">Lifeline1: Room</text>
		</g>
	</g>
	<g transform="translate(5,5) scale(1,1)">
		<path class="st6" d="M140.5,80v685"/>
	</g>
	<g transform="translate(5,5) scale(1,1)">
		<rect x="847" y="47" class="st5" width="130.2" height="39"/>
	</g>
	<g transform="translate(5,5) scale(1,1)">
		<rect x="840" y="40" class="st1" width="130.2" height="39"/>
	</g>
	<g transform="translate(5,5) scale(1,1)">
		<path class="st0" d="M840,40h130.2v39H840V40z"/>
	</g>
	<g transform="translate(5,5) scale(1,1)">
		<g>
			<path class="st0" d="M0,0"/>
			<text transform="matrix(1 0 0 1 853.8132 59.5)" class="st4 st3">Lifeline2: Monster</text>
		</g>
	</g>
	<g transform="translate(5,5) scale(1,1)">
		<path class="st6" d="M906.5,80v536"/>
	</g>
	<g transform="translate(5,5) scale(1,1)">
		<rect x="526" y="47" class="st5" width="106.4" height="39"/>
	</g>
	<g transform="translate(5,5) scale(1,1)">
		<rect x="519" y="40" class="st1" width="106.4" height="39"/>
	</g>
	<g transform="translate(5,5) scale(1,1)">
		<path class="st0" d="M519,40h106.4v39H519V40z"/>
	</g>
	<g transform="translate(5,5) scale(1,1)">
		<g>
			<path class="st0" d="M0,0"/>
			<text transform="matrix(1 0 0 1 531.7373 59.5)" class="st4 st3">Lifeline3: Item</text>
		</g>
	</g>
	<g transform="translate(5,5) scale(1,1)">
		<path class="st6" d="M573.5,80v702"/>
	</g>
	<g transform="translate(5,5) scale(1,1)">
		<rect x="367" y="47" class="st5" width="109.3" height="39"/>
	</g>
	<g transform="translate(5,5) scale(1,1)">
		<rect x="360" y="40" class="st1" width="109.3" height="39"/>
	</g>
	<g transform="translate(5,5) scale(1,1)">
		<path class="st0" d="M360,40h109.3v39H360V40z"/>
	</g>
	<g transform="translate(5,5) scale(1,1)">
		<g>
			<path class="st0" d="M0,0"/>
			<text transform="matrix(1 0 0 1 372.7341 59.5)" class="st4 st3">Lifeline4: Hero</text>
		</g>
	</g>
	<g transform="translate(5,5) scale(1,1)">
		<path class="st6" d="M415.5,80v702"/>
	</g>
	<g transform="translate(5,5) scale(1,1)">
		<path class="st1" d="M304,192h133l10,10v14H304V192"/>
	</g>
	<g transform="translate(5,5) scale(1,1)">
		<path class="st0" d="M304,192h133l10,10v14H304V192L304,192"/>
	</g>
	<g transform="translate(5,5) scale(1,1)">
		<path class="st0" d="M437,192v10h10L437,192"/>
	</g>
	<g transform="translate(5,5) scale(1,1)">
		<g>
			<path class="st0" d="M0,0"/>
			<text transform="matrix(1 0 0 1 309 210)" class="st2 st3">One for the room</text>
		</g>
	</g>
	<g transform="translate(5,5) scale(1,1)">
		<path class="st6" d="M277,288l83-70"/>
	</g>
	<g transform="translate(5,5) scale(1,1)">
		<path class="st1" d="M208,448h130l10,10v13H208V448"/>
	</g>
	<g transform="translate(5,5) scale(1,1)">
		<path class="st0" d="M208,448h130l10,10v13H208V448L208,448"/>
	</g>
	<g transform="translate(5,5) scale(1,1)">
		<path class="st0" d="M338,448v10h10L338,448"/>
	</g>
	<g transform="translate(5,5) scale(1,1)">
		<g>
			<path class="st0" d="M0,0"/>
			<text transform="matrix(1 0 0 1 213 466)" class="st2 st3">One for the Monster</text>
		</g>
	</g>
	<g transform="translate(5,5) scale(1,1)">
		<path class="st6" d="M277,536l1-63"/>
	</g>
	<g transform="translate(5,5) scale(1,1)">
		<path class="st1" d="M656.1,360h88l10,10v38h-98V360"/>
	</g>
	<g transform="translate(5,5) scale(1,1)">
		<path class="st0" d="M656.1,360h88l10,10v38h-98V360L656.1,360"/>
	</g>
	<g transform="translate(5,5) scale(1,1)">
		<path class="st0" d="M744.1,360v10h10L744.1,360"/>
	</g>
	<g transform="translate(5,5) scale(1,1)">
		<g>
			<path class="st0" d="M0,0"/>
			<text transform="matrix(1 0 0 1 661.124 378)" class="st2 st3">In case of</text>
			<text transform="matrix(1 0 0 1 661.124 391)" class="st2 st3">Health potion</text>
		</g>
	</g>
	<g transform="translate(5,5) scale(1,1)">
		<path class="st6" d="M497,405l158-16"/>
	</g>
	<g transform="translate(5,5) scale(1,1)">
		<path class="st1" d="M792,608h88l10,10v39h-98V608"/>
	</g>
	<g transform="translate(5,5) scale(1,1)">
		<path class="st0" d="M792,608h88l10,10v39h-98V608L792,608"/>
	</g>
	<g transform="translate(5,5) scale(1,1)">
		<path class="st0" d="M880,608v10h10L880,608"/>
	</g>
	<g transform="translate(5,5) scale(1,1)">
		<g>
			<path class="st0" d="M0,0"/>
			<text transform="matrix(1 0 0 1 797 626)" class="st2 st3">if Item null,</text>
			<text transform="matrix(1 0 0 1 797 639)" class="st2 st3">nothing is done</text>
		</g>
	</g>
	<g transform="translate(5,5) scale(1,1)">
		<path class="st6" d="M663,586l128,34"/>
	</g>
	<g transform="translate(5,5) scale(1,1)">
		<path class="st1" d="M608,656h88l10,10v39h-98V656"/>
	</g>
	<g transform="translate(5,5) scale(1,1)">
		<path class="st0" d="M608,656h88l10,10v39h-98V656L608,656"/>
	</g>
	<g transform="translate(5,5) scale(1,1)">
		<path class="st0" d="M696,656v10h10L696,656"/>
	</g>
	<g transform="translate(5,5) scale(1,1)">
		<g>
			<path class="st0" d="M0,0"/>
			<text transform="matrix(1 0 0 1 613 674)" class="st2 st3">In case of</text>
			<text transform="matrix(1 0 0 1 613 687)" class="st2 st3">Strength potion</text>
		</g>
	</g>
	<g transform="translate(5,5) scale(1,1)">
		<path class="st6" d="M497,720l110-27"/>
	</g>
	<g transform="translate(5,5) scale(1,1)">
		<path class="st0" d="M140,112h30v20h-24"/>
	</g>
	<g transform="translate(5,5) scale(1,1)">
		<path d="M156.2,127.8L146,132l10.2,4.2"/>
	</g>
	<g transform="translate(5,5) scale(1,1)">
		<path class="st0" d="M156.2,127.8L146,132l10.2,4.2V127.8"/>
	</g>
	<g transform="translate(5,5) scale(1,1)">
		<g>
			<path class="st0" d="M0,0"/>
			<text transform="matrix(1 0 0 1 151.5 108.5)" class="st2 st3">1 : enterRoom(p_Hero: Hero)</text>
		</g>
	</g>
	<g transform="translate(5,5) scale(1,1)">
		<rect x="133" y="132" class="st1" width="13" height="460"/>
	</g>
	<g transform="translate(5,5) scale(1,1)">
		<path class="st0" d="M133,132h13v460h-13V132z"/>
	</g>
	<g transform="translate(5,5) scale(1,1)">
		<path class="st0" d="M146,288h262"/>
	</g>
	<g transform="translate(5,5) scale(1,1)">
		<path d="M397.8,292.2L408,288l-10.2-4.2"/>
	</g>
	<g transform="translate(5,5) scale(1,1)">
		<path class="st0" d="M397.8,292.2L408,288l-10.2-4.2V292.2"/>
	</g>
	<g transform="translate(5,5) scale(1,1)">
		<g>
			<path class="st0" d="M0,0"/>
			<text transform="matrix(1 0 0 1 136.5 284.5)" class="st2 st3">2 : searchForPotions(p_Searchable: Searchable)</text>
		</g>
	</g>
	<g transform="translate(5,5) scale(1,1)">
		<rect x="408" y="288" class="st1" width="13" height="148"/>
	</g>
	<g transform="translate(5,5) scale(1,1)">
		<path class="st0" d="M408,288h13v148h-13V288z"/>
	</g>
	<g transform="translate(5,5) scale(1,1)">
		<path class="st0" d="M408,335H153"/>
	</g>
	<g transform="translate(5,5) scale(1,1)">
		<path d="M163.2,330.8L153,335l10.2,4.2"/>
	</g>
	<g transform="translate(5,5) scale(1,1)">
		<path class="st0" d="M163.2,330.8L153,335l10.2,4.2V330.8"/>
	</g>
	<g transform="translate(5,5) scale(1,1)">
		<g>
			<path class="st0" d="M0,0"/>
			<text transform="matrix(1 0 0 1 245.6509 351.5)" class="st2 st3">3 : search()</text>
		</g>
	</g>
	<g transform="translate(5,5) scale(1,1)">
		<rect x="140" y="335" class="st1" width="13" height="28"/>
	</g>
	<g transform="translate(5,5) scale(1,1)">
		<path class="st0" d="M140,335h13v28h-13V335z"/>
	</g>
	<g transform="translate(5,5) scale(1,1)">
		<path class="st0" d="M421,384h145"/>
	</g>
	<g transform="translate(5,5) scale(1,1)">
		<path d="M555.8,388.2L566,384l-10.2-4.2"/>
	</g>
	<g transform="translate(5,5) scale(1,1)">
		<path class="st0" d="M555.8,388.2L566,384l-10.2-4.2V388.2"/>
	</g>
	<g transform="translate(5,5) scale(1,1)">
		<g>
			<path class="st0" d="M0,0"/>
			<text transform="matrix(1 0 0 1 408.5 380.5)" class="st2 st3">4 : applyEffect(p_Hero: Hero)</text>
		</g>
	</g>
	<g transform="translate(5,5) scale(1,1)">
		<rect x="566" y="384" class="st1" width="13" height="28"/>
	</g>
	<g transform="translate(5,5) scale(1,1)">
		<path class="st0" d="M566,384h13v28h-13V384z"/>
	</g>
	<g transform="translate(5,5) scale(1,1)">
		<path class="st6" d="M146,388h262"/>
	</g>
	<g transform="translate(5,5) scale(1,1)">
		<path class="st0" d="M397.8,392.2L408,388l-10.2-4.2"/>
	</g>
	<g transform="translate(5,5) scale(1,1)">
		<g>
			<path class="st0" d="M0,0"/>
			<text transform="matrix(1 0 0 1 255.9146 384.5)" class="st2 st3">5 : item</text>
		</g>
	</g>
	<g transform="translate(5,5) scale(1,1)">
		<path class="st0" d="M566,405H428"/>
	</g>
	<g transform="translate(5,5) scale(1,1)">
		<path d="M438.2,400.8L428,405l10.2,4.2"/>
	</g>
	<g transform="translate(5,5) scale(1,1)">
		<path class="st0" d="M438.2,400.8L428,405l10.2,4.2V400.8"/>
	</g>
	<g transform="translate(5,5) scale(1,1)">
		<g>
			<path class="st0" d="M0,0"/>
			<text transform="matrix(1 0 0 1 423.5 427.5)" class="st2 st3">6 : improveHealth(p_iValue: int)</text>
		</g>
	</g>
	<g transform="translate(5,5) scale(1,1)">
		<rect x="415" y="405" class="st1" width="13" height="28"/>
	</g>
	<g transform="translate(5,5) scale(1,1)">
		<path class="st0" d="M415,405h13v28h-13V405z"/>
	</g>
	<g transform="translate(5,5) scale(1,1)">
		<path class="st0" d="M146,536h262"/>
	</g>
	<g transform="translate(5,5) scale(1,1)">
		<path d="M397.8,540.2L408,536l-10.2-4.2"/>
	</g>
	<g transform="translate(5,5) scale(1,1)">
		<path class="st0" d="M397.8,540.2L408,536l-10.2-4.2V540.2"/>
	</g>
	<g transform="translate(5,5) scale(1,1)">
		<g>
			<path class="st0" d="M0,0"/>
			<text transform="matrix(1 0 0 1 136.5 532.5)" class="st2 st3">7 : searchForPotions(p_Searchable: Searchable)</text>
		</g>
	</g>
	<g transform="translate(5,5) scale(1,1)">
		<rect x="408" y="536" class="st1" width="13" height="215"/>
	</g>
	<g transform="translate(5,5) scale(1,1)">
		<path class="st0" d="M408,536h13v215h-13V536z"/>
	</g>
	<g transform="translate(5,5) scale(1,1)">
		<path class="st0" d="M421,552h478"/>
	</g>
	<g transform="translate(5,5) scale(1,1)">
		<path d="M888.8,556.2L899,552l-10.2-4.2"/>
	</g>
	<g transform="translate(5,5) scale(1,1)">
		<path class="st0" d="M888.8,556.2L899,552l-10.2-4.2V556.2"/>
	</g>
	<g transform="translate(5,5) scale(1,1)">
		<g>
			<path class="st0" d="M0,0"/>
			<text transform="matrix(1 0 0 1 626.6509 548.5)" class="st2 st3">8 : search()</text>
		</g>
	</g>
	<g transform="translate(5,5) scale(1,1)">
		<rect x="899" y="552" class="st1" width="13" height="28"/>
	</g>
	<g transform="translate(5,5) scale(1,1)">
		<path class="st0" d="M899,552h13v28h-13V552z"/>
	</g>
	<g transform="translate(5,5) scale(1,1)">
		<path class="st6" d="M906,586H421"/>
	</g>
	<g transform="translate(5,5) scale(1,1)">
		<path class="st0" d="M431.2,581.8L421,586l10.2,4.2"/>
	</g>
	<g transform="translate(5,5) scale(1,1)">
		<g>
			<path class="st0" d="M0,0"/>
			<text transform="matrix(1 0 0 1 645.5 580.5)" class="st2 st3">9 : item</text>
		</g>
	</g>
	<g transform="translate(5,5) scale(1,1)">
		<path class="st0" d="M421,680h145"/>
	</g>
	<g transform="translate(5,5) scale(1,1)">
		<path d="M555.8,684.2L566,680l-10.2-4.2"/>
	</g>
	<g transform="translate(5,5) scale(1,1)">
		<path class="st0" d="M555.8,684.2L566,680l-10.2-4.2V684.2"/>
	</g>
	<g transform="translate(5,5) scale(1,1)">
		<g>
			<path class="st0" d="M0,0"/>
			<text transform="matrix(1 0 0 1 404.5 676.5)" class="st2 st3">10 : applyEffect(p_Hero: Hero)</text>
		</g>
	</g>
	<g transform="translate(5,5) scale(1,1)">
		<rect x="566" y="680" class="st1" width="13" height="88"/>
	</g>
	<g transform="translate(5,5) scale(1,1)">
		<path class="st0" d="M566,680h13v88h-13V680z"/>
	</g>
	<g transform="translate(5,5) scale(1,1)">
		<path class="st0" d="M566,720H428"/>
	</g>
	<g transform="translate(5,5) scale(1,1)">
		<path d="M438.2,715.8L428,720l10.2,4.2"/>
	</g>
	<g transform="translate(5,5) scale(1,1)">
		<path class="st0" d="M438.2,715.8L428,720l10.2,4.2V715.8"/>
	</g>
	<g transform="translate(5,5) scale(1,1)">
		<g>
			<path class="st0" d="M0,0"/>
			<text transform="matrix(1 0 0 1 422.5 739.5)" class="st2 st3">11 : improveStrength(p_iValue: int)</text>
		</g>
	</g>
	<g transform="translate(5,5) scale(1,1)">
		<rect x="415" y="720" class="st1" width="13" height="28"/>
	</g>
	<g transform="translate(5,5) scale(1,1)">
		<path class="st0" d="M415,720h13v28h-13V720z"/>
	</g>
	<g transform="translate(5,5) scale(1,1)">
		<path class="st0" d="M64,144h983v792H64V144"/>
	</g>
	<g transform="translate(5,5) scale(1,1)">
		<path class="st1" d="M64,144v22h224.1l11-11v-11H64"/>
	</g>
	<g transform="translate(5,5) scale(1,1)">
		<path class="st0" d="M64,144v22h224.1l11-11v-11H64L64,144"/>
	</g>
	<g transform="translate(5,5) scale(1,1)">
		<g>
			<path class="st0" d="M0,0"/>
			<text transform="matrix(1 0 0 1 88.73 161.5)" class="st2 st3">if heros is alive and monster dead</text>
		</g>
	</g>
	<g transform="translate(5,5) scale(1,1)">
		<g>
			<path d="M0,0"/>
			<text transform="matrix(1 0 0 1 69 161.5)" class="st4 st3">alt</text>
		</g>
	</g>
</g>
</svg>
